<svg width="256" height="256" viewBox="0 0 256 256" fill="none" xmlns="http://www.w3.org/2000/svg">
<path d="M127.922 52.9225C132.521 49.9414 136.646 46.3383 141.466 43.6577C155.716 35.7332 172.251 31.7622 188.285 29.627C194.315 28.8242 200.33 28.2195 206.418 28.1726C211.152 28.1361 221.589 28.1506 225.89 29.3724C227.084 29.7117 228.231 30.2916 229.1 31.1926C230.015 32.1405 230.596 33.4474 230.851 34.7288C231.244 36.7062 231.073 38.9028 231.067 40.9129C231.063 44.1821 231.034 47.4516 230.98 50.7204C235.484 50.9151 242.099 49.8094 245.691 53.1599C247.401 54.7555 247.839 56.908 247.928 59.1448C248.078 62.8795 247.949 66.6686 247.941 70.4077L247.893 92.0483L247.939 152.96L247.934 192.791L247.932 205.259C247.931 207.514 248.07 209.868 247.854 212.108C247.677 213.952 247.059 215.774 245.755 217.129C244.802 218.119 243.594 218.762 242.267 219.095C239.13 219.883 231.896 219.431 228.376 219.418L177.493 219.419L162.085 219.414C158.57 219.412 154.992 219.272 151.492 219.647C145.158 220.326 144.069 222.583 139.036 225.044C136.323 226.37 133.304 226.939 130.309 227.123C125.751 227.402 120.657 227.066 116.537 224.913C115.261 224.247 114.1 223.36 112.889 222.585C110.188 220.855 107.135 219.932 103.954 219.619C100.844 219.313 97.6786 219.418 94.5576 219.419L80.714 219.422L35.6484 219.41L23.0659 219.434C20.1089 219.441 16.9193 219.686 14.0175 219.091C12.756 218.831 11.4808 218.321 10.5292 217.43C8.44735 215.48 8.09452 212.294 8.05972 209.602C7.92328 199.138 8.06351 188.65 8.06214 178.183L8.07936 109.919L8.05972 75.7263L8.03043 64.6285C8.0263 62.4164 7.92087 60.1416 8.13208 57.9406C8.31056 56.0796 8.90664 54.7772 10.2449 53.4586C13.8142 49.9427 20.3797 50.7311 25.0019 50.7394C25.0671 47.4974 25.0023 44.2441 24.9961 41.0012C24.9916 38.9049 24.8627 36.7276 25.2862 34.6644C25.5415 33.4209 26.0115 32.1881 26.8677 31.2309C27.666 30.3381 28.7528 29.7097 29.8926 29.362C32.7776 28.482 41.1499 28.388 44.5631 28.2684C52.3436 27.8167 60.5358 28.6891 68.2252 29.8323C83.0536 32.0372 95.8363 35.3642 109.418 41.8484C113.574 43.8324 117.618 45.9276 121.506 48.3998C123.719 49.807 125.793 51.3951 127.922 52.9225Z" fill="#20CBCC"/>
<path d="M125.576 65.9396C131.087 66.0068 132.528 63.6851 136.497 60.4794C154.922 45.598 182.587 39.8084 205.764 39.3894C210.371 39.306 215.047 39.2692 219.635 39.7619L219.579 184.76L215.676 184.824C210.191 185.029 204.709 185.277 199.251 185.875C194.415 186.405 189.653 187.226 184.854 187.996C180.535 188.689 176.186 189.227 171.91 190.165C165.542 191.561 159.629 193.514 153.615 196.022C143.993 200.034 135.608 204.949 128.023 212.165C125.696 210.463 123.658 208.43 121.26 206.779C118.766 205.062 116.15 203.568 113.524 202.064C99.3122 193.927 88.4417 191.333 72.4908 188.457C67.7773 187.607 63.1096 186.656 58.3533 186.055C51.1603 185.145 43.7847 184.886 36.5414 184.782C36.2031 179.399 36.4763 173.849 36.4756 168.445L36.4712 137.212L36.4736 39.6509L39.5667 39.489C61.9846 38.2686 91.9786 43.2409 111.446 54.9089C114.938 57.0021 118.44 59.445 121.517 62.1095C122.877 63.2872 123.847 64.9111 125.397 65.8355C125.456 65.871 125.516 65.9051 125.576 65.9396Z" fill="white"/>
<path d="M141.396 78.3623C143.139 78.2272 144.81 78.2748 146.485 78.8319C147.743 79.2502 148.961 79.9586 149.551 81.1987C150.001 82.1431 149.989 83.2684 149.748 84.268C149.024 87.2639 147.671 90.3312 146.638 93.243L140.284 111.1C134.221 128.124 128.456 145.307 122.088 162.213C121.034 165.01 120.255 166.5 117.424 167.787C115.537 168.352 113.244 168.573 111.368 167.826C110.413 167.446 109.667 166.803 109.287 165.834C108.836 164.68 108.996 163.343 109.323 162.18C110.619 157.565 112.51 152.969 114.115 148.441L123.799 121.147L132.9 95.4055C134.545 90.735 135.968 85.7803 137.99 81.2707C138.687 79.7171 139.85 78.9584 141.396 78.3623Z" fill="#1E1E1E"/>
<path d="M95.8342 87.6787C97.6821 87.6942 99.5237 88.3089 100.855 89.6279C101.927 90.6901 102.471 92.0873 102.456 93.593C102.442 94.85 102.05 96.1438 101.34 97.1837C99.7946 99.4474 96.9716 101.67 94.9842 103.64C91.326 107.297 87.6486 110.936 83.9515 114.554C81.1954 117.202 78.3335 119.742 75.6056 122.419C77.6616 124.87 80.1724 127.109 82.4389 129.374L95.3822 142.335C97.3658 144.333 99.6061 146.316 101.34 148.53C102.529 150.047 103.031 151.727 102.735 153.653C102.472 155.361 101.411 157.006 99.9699 157.963C98.4911 158.945 96.8486 158.836 95.2013 158.488C94.8622 158.337 94.5349 158.181 94.2159 157.992C92.2419 156.82 88.2109 152.257 86.4571 150.488L71.0213 134.955C68.1835 132.104 64.9547 129.402 62.3467 126.353C61.6848 125.58 61.1656 124.66 60.9568 123.657C60.6443 122.152 60.9323 120.333 61.8282 119.066C63.3608 116.9 66.5979 114.335 68.5829 112.424L82.7097 98.7269L89.3445 92.2255C90.5418 91.0554 91.7326 89.7509 93.0633 88.7382C93.9085 88.0953 94.8064 87.8637 95.8342 87.6787Z" fill="#1E1E1E"/>
<path d="M159.033 88.6919C159.75 88.6702 160.481 88.634 161.192 88.7495C162.383 88.9459 163.508 89.4344 164.465 90.1711C167.187 92.2763 169.646 94.9353 172.093 97.352L184.146 109.313C186.54 111.697 191.85 116.41 193.633 118.983C194.484 120.212 195.155 121.977 194.828 123.485C194.584 124.611 193.853 125.594 193.136 126.469C191.031 129.037 188.585 131.374 186.264 133.745L175.746 144.502C172.515 147.801 167.015 154.222 163.464 156.632C162.598 157.061 161.827 157.359 160.86 157.456C159.189 157.624 157.477 157.256 156.196 156.124C155.019 155.084 154.104 153.461 154.057 151.869C154.014 150.375 154.865 149.102 155.716 147.945C158.285 144.453 162.162 141.004 165.23 137.843L179.974 122.421C174.668 117.266 169.537 111.922 164.289 106.706C161.752 104.186 158.919 101.84 156.524 99.2002C155.77 98.3695 154.739 97.1921 154.435 96.1082C154.035 94.6838 154.299 93.1071 155 91.8243C155.902 90.1721 157.244 89.1888 159.033 88.6919Z" fill="#1E1E1E"/>
<path d="M21.1179 61.8587C22.5596 61.7323 24.0405 61.7836 25.4883 61.7705L25.5283 159.984L25.5269 179.837C25.5227 182.387 25.1324 189.645 25.7708 191.758C26.3989 193.836 28.2975 194.773 30.28 195.184C32.6134 195.667 35.1093 195.606 37.4837 195.708C40.8352 195.84 44.1846 196.024 47.5306 196.26C53.8377 196.71 60.3034 197.209 66.5498 198.207C70.741 198.876 74.8826 199.864 79.0224 200.792C86.9355 202.565 94.8052 204.71 102.019 208.523L99.4698 208.479L18.4548 208.525L18.4355 62.0486L21.1179 61.8587Z" fill="white"/>
<path d="M230.584 61.7456C232.806 61.758 235.027 61.8507 237.243 62.0237L237.235 208.494L161.378 208.477L153.361 208.515C159.727 204.391 167.943 202.529 175.236 200.914C186.29 198.367 197.537 196.746 208.862 196.069C212.23 195.842 215.596 195.748 218.97 195.659C221.067 195.604 223.265 195.648 225.34 195.344C226.879 195.118 228.363 194.603 229.475 193.469C230.202 192.728 230.601 191.882 230.675 190.848C231.004 186.211 230.681 180.445 230.672 175.712L230.628 145.527L230.584 61.7456Z" fill="white"/>
</svg>
