<svg width="256" height="256" viewBox="0 0 256 256" fill="none" xmlns="http://www.w3.org/2000/svg">
<path d="M127.926 74.0681C131.263 71.9051 134.255 69.2909 137.753 67.3459C148.092 61.5961 160.089 58.7149 171.724 57.1656C176.098 56.5831 180.463 56.1444 184.88 56.1104C188.315 56.0839 195.887 56.0944 199.008 56.9809C199.875 57.2271 200.707 57.6479 201.338 58.3016C202.001 58.9894 202.423 59.9376 202.608 60.8674C202.893 62.3021 202.769 63.8959 202.765 65.3544C202.762 67.7264 202.741 70.0986 202.702 72.4704C205.969 72.6116 210.769 71.8094 213.375 74.2404C214.616 75.3981 214.934 76.9599 214.999 78.5829C215.107 81.2926 215.013 84.0419 215.008 86.7549L214.973 102.457L215.007 146.652L215.003 175.553L215.001 184.599C215.001 186.235 215.102 187.943 214.945 189.568C214.816 190.906 214.368 192.228 213.422 193.212C212.731 193.929 211.854 194.396 210.891 194.638C208.615 195.21 203.366 194.882 200.812 194.872L163.893 194.873L152.714 194.869C150.163 194.868 147.567 194.767 145.028 195.039C140.432 195.531 139.641 197.169 135.99 198.954C134.022 199.917 131.831 200.329 129.658 200.462C126.351 200.665 122.655 200.421 119.665 198.859C118.74 198.376 117.897 197.733 117.019 197.17C115.059 195.915 112.843 195.245 110.535 195.018C108.279 194.796 105.982 194.872 103.718 194.873L93.6731 194.875L60.9749 194.866L51.8454 194.884C49.6999 194.889 47.3856 195.067 45.2801 194.635C44.3649 194.447 43.4396 194.076 42.7491 193.43C41.2386 192.015 40.9826 189.703 40.9574 187.75C40.8584 180.158 40.9601 172.548 40.9591 164.954L40.9716 115.423L40.9574 90.6139L40.9361 82.5616C40.9331 80.9566 40.8566 79.3061 41.0099 77.7091C41.1394 76.3589 41.5719 75.4139 42.5429 74.4571C45.1326 71.9061 49.8964 72.4781 53.2501 72.4841C53.2974 70.1319 53.2504 67.7714 53.2459 65.4184C53.2426 63.8974 53.1491 62.3176 53.4564 60.8206C53.6416 59.9184 53.9826 59.0239 54.6039 58.3294C55.1831 57.6816 55.9716 57.2256 56.7986 56.9734C58.8919 56.3349 64.9666 56.2666 67.4431 56.1799C73.0884 55.8521 79.0324 56.4851 84.6116 57.3146C95.3706 58.9144 104.645 61.3284 114.5 66.0331C117.515 67.4726 120.45 68.9929 123.271 70.7866C124.876 71.8076 126.381 72.9599 127.926 74.0681Z" fill="#20CBCC"/>
<path d="M126.224 83.513C130.222 83.5617 131.268 81.8772 134.148 79.5512C147.516 68.7537 167.589 64.553 184.406 64.249C187.748 64.1885 191.141 64.1617 194.47 64.5192L194.429 169.725L191.597 169.772C187.618 169.921 183.64 170.1 179.68 170.534C176.171 170.919 172.716 171.515 169.234 172.073C166.1 172.576 162.945 172.966 159.842 173.647C155.222 174.66 150.932 176.077 146.568 177.897C139.586 180.808 133.503 184.374 127.999 189.609C126.31 188.374 124.832 186.9 123.092 185.702C121.283 184.456 119.384 183.372 117.479 182.281C107.167 176.376 99.2801 174.495 87.7066 172.408C84.2866 171.791 80.8999 171.101 77.4489 170.665C72.2299 170.005 66.8784 169.817 61.6229 169.741C61.3774 165.835 61.5756 161.808 61.5751 157.888L61.5719 135.226L61.5736 64.4387L63.8179 64.3212C80.0836 63.4357 101.846 67.0435 115.971 75.5095C118.505 77.0282 121.046 78.8007 123.279 80.734C124.265 81.5885 124.969 82.7667 126.094 83.4375C126.137 83.4632 126.18 83.488 126.224 83.513Z" fill="white"/>
<path d="M137.702 92.5263C138.967 92.4283 140.179 92.4628 141.395 92.867C142.307 93.1705 143.191 93.6845 143.619 94.5843C143.946 95.2695 143.937 96.086 143.762 96.8113C143.237 98.985 142.255 101.211 141.505 103.323L136.895 116.28C132.496 128.632 128.314 141.099 123.693 153.366C122.928 155.395 122.363 156.477 120.309 157.41C118.939 157.82 117.276 157.98 115.915 157.439C115.222 157.163 114.681 156.696 114.405 155.993C114.078 155.156 114.194 154.186 114.431 153.342C115.371 149.994 116.744 146.659 117.908 143.373L124.934 123.57L131.538 104.892C132.731 101.504 133.764 97.9085 135.231 94.6365C135.737 93.5093 136.581 92.9588 137.702 92.5263Z" fill="#1E1E1E"/>
<path d="M104.644 99.2861C105.985 99.2974 107.321 99.7434 108.287 100.7C109.065 101.471 109.46 102.485 109.449 103.577C109.439 104.489 109.154 105.428 108.639 106.183C107.518 107.825 105.47 109.438 104.028 110.867C101.373 113.521 98.7052 116.161 96.0227 118.786C94.0229 120.708 91.9464 122.55 89.9671 124.493C91.4589 126.271 93.2806 127.896 94.9251 129.539L104.316 138.943C105.756 140.393 107.381 141.831 108.639 143.438C109.502 144.538 109.866 145.757 109.651 147.155C109.46 148.394 108.69 149.588 107.645 150.282C106.572 150.995 105.38 150.916 104.185 150.663C103.939 150.554 103.702 150.441 103.47 150.303C102.038 149.453 99.1132 146.142 97.8407 144.858L86.6409 133.589C84.5819 131.52 82.2392 129.559 80.3469 127.347C79.8667 126.786 79.4899 126.119 79.3384 125.391C79.1117 124.299 79.3207 122.979 79.9707 122.06C81.0827 120.488 83.4314 118.627 84.8717 117.241L95.1217 107.302L99.9357 102.585C100.804 101.736 101.668 100.79 102.634 100.055C103.247 99.5884 103.899 99.4204 104.644 99.2861Z" fill="#1E1E1E"/>
<path d="M150.499 100.021C151.02 100.005 151.55 99.9791 152.065 100.063C152.93 100.205 153.746 100.56 154.44 101.094C156.415 102.622 158.2 104.551 159.975 106.305L168.72 114.983C170.458 116.713 174.31 120.132 175.604 121.999C176.221 122.891 176.708 124.172 176.471 125.266C176.294 126.083 175.763 126.796 175.243 127.431C173.716 129.295 171.941 130.99 170.257 132.71L162.626 140.515C160.281 142.909 156.291 147.568 153.714 149.316C153.086 149.628 152.526 149.844 151.824 149.914C150.612 150.036 149.37 149.769 148.441 148.948C147.587 148.193 146.923 147.015 146.889 145.86C146.857 144.776 147.475 143.853 148.093 143.013C149.957 140.48 152.769 137.977 154.995 135.683L165.693 124.494C161.843 120.754 158.121 116.876 154.313 113.092C152.472 111.263 150.417 109.561 148.678 107.646C148.131 107.043 147.384 106.189 147.163 105.402C146.873 104.369 147.064 103.225 147.573 102.294C148.227 101.095 149.201 100.382 150.499 100.021Z" fill="#1E1E1E"/>
<path d="M50.4316 80.5518C51.4776 80.46 52.5521 80.4973 53.6026 80.4878L53.6316 151.749L53.6306 166.153C53.6276 168.004 53.3444 173.27 53.8076 174.803C54.2634 176.311 55.6409 176.99 57.0794 177.288C58.7724 177.639 60.5834 177.595 62.3061 177.669C64.7379 177.764 67.1681 177.898 69.5959 178.069C74.1721 178.396 78.8634 178.758 83.3956 179.482C86.4366 179.968 89.4416 180.685 92.4454 181.358C98.1869 182.644 103.897 184.201 109.131 186.967L107.281 186.935L48.4994 186.968L48.4854 80.6895L50.4316 80.5518Z" fill="white"/>
<path d="M202.414 80.4697C204.027 80.4787 205.638 80.546 207.246 80.6715L207.24 186.946L152.201 186.933L146.384 186.961C151.003 183.969 156.964 182.618 162.255 181.446C170.276 179.598 178.437 178.422 186.653 177.931C189.097 177.766 191.539 177.698 193.988 177.633C195.509 177.593 197.104 177.625 198.61 177.404C199.726 177.24 200.803 176.867 201.61 176.044C202.137 175.506 202.427 174.893 202.48 174.142C202.719 170.778 202.485 166.594 202.478 163.16L202.446 141.259L202.414 80.4697Z" fill="white"/>
</svg>
